<svg xmlns="http://www.w3.org/2000/svg" width="12" height="9" viewBox="0 0 12 9"><g><g><path fill="#333" d="M6.962.037l2.076 1.545c.08.08.08.17 0 .249L6.962 3.376c-.08.08-.162.045-.162-.075v-.997H1.2V6.69H2v1.196H1c-.253 0-.521-.096-.712-.286A1.014 1.014 0 0 1 0 6.89V2.104c0-.253.096-.52.288-.71.19-.19.459-.287.712-.287h5.8V.111c0-.06.02-.096.05-.111.03-.015.072-.003.112.037zM10 1.108h1c.253 0 .521.096.712.287.192.19.288.457.288.71v4.784c0 .252-.096.52-.288.71-.19.19-.459.286-.712.286H5.2v.997c0 .12-.082.155-.162.075L2.962 7.413c-.08-.08-.08-.17 0-.25l2.076-1.545c.08-.079.162-.044.162.075v.997h5.6V2.304H10z"/></g></g></svg>