<svg xmlns="http://www.w3.org/2000/svg" width="30" height="30" viewBox="0 0 30 30"><defs><linearGradient id="bkssa" x1="15" x2="15" y1="29" y2="1" gradientUnits="userSpaceOnUse"><stop offset="0" stop-color="#ff4114"/><stop offset="1" stop-color="#ff8317"/></linearGradient><filter id="bkssb" width="200%" height="200%" x="-50%" y="-50%"><feGaussianBlur in="SourceGraphic" result="FeGaussianBlur1034Out" stdDeviation="0 0"/></filter><mask id="bkssc"><path fill="#fff" d="M15 1c7.732 0 14 6.268 14 14s-6.268 14-14 14S1 22.732 1 15 7.268 1 15 1z"/></mask><clipPath id="bkssd"><path fill="#fff" d="M0 30V0h30v30zm1-15c0 7.732 6.268 14 14 14s14-6.268 14-14S22.732 1 15 1 1 7.268 1 15z"/></clipPath><clipPath id="bksse"><path fill="#fff" d="M9 25V5h13v20zm3.95-10L10 24l11-9-11-9z"/></clipPath></defs><g><g><path fill="#fff" d="M15 1c7.732 0 14 6.268 14 14s-6.268 14-14 14S1 22.732 1 15 7.268 1 15 1z"/><path fill="url(#bkssa)" d="M15 1c7.732 0 14 6.268 14 14s-6.268 14-14 14S1 22.732 1 15 7.268 1 15 1z"/><path fill="#ff9e4c" fill-opacity=".5" d="M1 29V15.023C1.013 22.745 7.276 29 15 29s13.987-6.255 14-13.977V29zM1 1h13.896C7.22 1.056 1.013 7.29 1 14.976zm28 0v13.976C28.987 7.29 22.78 1.056 15.104 1zM1 15v.023-.047V15zm28 0v-.024V15zM15 1h-.104.208H15z" filter="url(#bkssb)" mask="url(&quot;#bkssc&quot;)"/><path fill="none" stroke="#ee6c19" stroke-linecap="round" stroke-linejoin="round" stroke-miterlimit="20" stroke-width="2" d="M15 1c7.732 0 14 6.268 14 14s-6.268 14-14 14S1 22.732 1 15 7.268 1 15 1z" clip-path="url(&quot;#bkssd&quot;)"/></g><g><path fill="#fff" d="M10 6l11 9-11 9 2.95-9z"/><path fill="none" stroke="#000" stroke-linecap="round" stroke-linejoin="round" stroke-miterlimit="20" stroke-opacity=".11" stroke-width="2" d="M10 6v0l11 9v0l-11 9v0l2.95-9v0z" clip-path="url(&quot;#bksse&quot;)"/></g></g></svg>