<svg xmlns="http://www.w3.org/2000/svg" width="22" height="26" viewBox="0 0 22 26"><g><g><path fill="#fff" d="M16.098 6.232c2.859 0 4.687 2.742 4.687 2.742s-2.789 1.5-2.789 4.758c0 3.867 3.504 4.992 3.504 4.992s-2.766 6.504-5.871 6.504c-1.746 0-1.863-.996-4.184-.996-2.015 0-2.695.996-4.23.996-2.93 0-6.715-6.34-6.715-11.496 0-5.355 3.832-7.5 6.234-7.5 2.11 0 2.989 1.23 4.688 1.23 1.43 0 2.555-1.23 4.676-1.23zm-.493-5.46c.422 2.624-1.98 5.87-4.851 5.765-.422-3.34 2.672-5.59 4.851-5.766z"/></g></g></svg>