<svg xmlns="http://www.w3.org/2000/svg" width="78" height="17" viewBox="0 0 78 17"><g><g><path fill="#fff" d="M62 12h-1V1h1zm8 0h-1v-1s-1.266 1.128-3.13 1.128c-1.863 0-2.625-.97-2.625-2.337C63.245 8.424 64.457 7 67 7h2V6s-.153-1.35-2.333-1.35-2.133 1.517-2.133 1.517l-.961.002s.086-2.22 3.118-2.22S70 5.999 70 5.999v6zm-1-4h-2c-1.524 0-2.806.81-2.806 1.861s.797 1.507 1.758 1.507S69 10.578 69 9zm2-4h1l2.551 6.788L77 4h1s-2.656 9.182-3 10c-.344.818-1.77 1.212-2.777 1.212-.453 0-.906-.265-.906-.265l.25-.701s.226.125.672.125c.445 0 1.219-1.029 1.219-1.029l.562-1.34zM59.855 7.976c0 2.89-1.523 4.152-3.492 4.152-1.934 0-2.333-1.077-2.363-1.128v4h-1V4h1v1c.03-.038.675-1.051 2.34-1.051 1.687 0 3.515 1.137 3.515 4.027zm-.914.062c0-1.892-1.195-3.34-2.625-3.34C54.743 4.697 54.03 6.957 54 7v2c.03.05.583 2.403 2.199 2.403 1.64 0 2.742-1.473 2.742-3.365zM9.508 3.108l-.602.162.374-.612S8.125 1.146 6.075 1.146c-2.049 0-4.407 1.392-4.407 4.681 0 2.695 2.187 5.646 5.563 5.646 1.167 0 1.935-.434 1.935-.434V8.626s-1.736-.02-2.39.145L8 8h4s-1.191.425-1.191 1.382v1.947s-2.513.82-4.75.82C1.733 12.15-.008 8.98-.008 6.47-.008 3.6 2.294.567 6.255.567c3.253 0 4.554 1.32 4.554 1.32zm10.85 4.85c0 2.365-1.772 4.045-4.3 4.045-2.528 0-3.956-2.126-3.956-3.892 0-2.451 1.892-4.131 4.213-4.131 2.322 0 4.043 1.611 4.043 3.977zm-1.686.788c0-2.29-1.153-4.252-2.82-4.252-1.17 0-2.185 1.063-2.185 2.555 0 1.49.904 4.44 2.82 4.44 1.917 0 2.185-1.955 2.185-2.743zm10.718-.787c0 2.365-1.77 4.044-4.298 4.044-2.527 0-3.954-2.125-3.954-3.89 0-2.45 1.891-4.13 4.212-4.13 2.32 0 4.04 1.612 4.04 3.976zm-1.685.788c0-2.288-1.151-4.249-2.82-4.249-1.168 0-2.182 1.063-2.182 2.553s.904 4.438 2.819 4.438 2.183-1.953 2.183-2.742zm9.753 5.14c0 2.239-2.793 3.116-4.425 3.116-1.632 0-3.622-.66-3.622-2.418 0-2.908 4.553-2.912 4.553-2.912s-.487-.502-.487-1.064c0-.345.12-.605.12-.605s-.137.042-.342.042c-1.973 0-2.973-1.404-2.973-2.58 0-1.668 1.521-3.218 3.537-3.218h3.929l-1.008.596-1.008.034s1.06.698 1.06 2.265c0 1.056-.539 1.64-1.128 2.197-.59.558-.598.758-.598 1.004 0 .247.162.52.99 1.09.83.57 1.402 1.384 1.402 2.452zm-2.14-5.973c0-1.98-1.127-3.066-2.076-3.066-.948 0-1.486.767-1.486 1.84 0 1.072.948 2.848 2.14 2.848 1.192 0 1.422-.933 1.422-1.622zm.948 6.564c0-1.149-.922-1.513-1.756-2.247 0 0-.268-.045-.583-.045-.314 0-3.017.172-3.017 2.024s2.345 2.069 2.896 2.069c.55 0 2.46-.153 2.46-1.8zM38 1l.67-1.013L41 0c-.575.305-.985.574-1 2-.015 1.425 0 8 0 8 0 .544.717 1.34 1.144 1.34.389 0 .567.075.567.075L41 12h-3s.995-.619 1-1V1zm6.53 6.632l-1.315.068c.343 2.039 1.977 3.374 3.405 3.374 1.07 0 2.037-.569 2.037-.569s-.915 1.498-2.935 1.498c-2.883 0-4.04-2.186-4.04-4.13 0-1.945 1.312-3.924 3.833-3.924 2.52 0 2.935 2.116 2.935 2.116zm-1.316.063c.223-.09 3.316-1.354 3.44-1.578.13-.232-.137-1.549-1.605-1.549-.732 0-1.9.672-1.9 2.341 0 .272.023.534.065.786z"/></g></g></svg>